<?xml version="1.0" encoding="utf-8"?>
<!-- Generator: Adobe Illustrator 24.1.0, SVG Export Plug-In . SVG Version: 6.00 Build 0)  -->
<svg version="1.1" id="Capa_1" xmlns="http://www.w3.org/2000/svg" xmlns:xlink="http://www.w3.org/1999/xlink" x="0px" y="0px"
	 viewBox="0 0 81.5 81.5" style="enable-background:new 0 0 81.5 81.5;" xml:space="preserve">
<style type="text/css">
	.st0{fill:#671010;}
	.st1{fill:#AE0001;}
	.st2{fill:#EEBA30;}
</style>
<path class="st0" d="M40.8,2.9C19.9,2.9,2.9,19.9,2.9,40.8s16.9,37.8,37.8,37.8s37.8-16.9,37.8-37.8S61.6,2.9,40.8,2.9z M40.8,72.7
	c-17.6,0-32-14.3-32-32s14.3-32,32-32s32,14.3,32,32S58.4,72.7,40.8,72.7z"/>
<path class="st1" d="M40.8,0C18.2,0,0,18.2,0,40.8s18.2,40.8,40.8,40.8s40.8-18.2,40.8-40.8S63.3,0,40.8,0z M40.8,75.2
	c-19,0-34.4-15.4-34.4-34.4S21.7,6.3,40.8,6.3s34.4,15.4,34.4,34.4S59.8,75.2,40.8,75.2z"/>
<polygon class="st2" points="60.2,40.8 31,57.6 31,23.9 "/>
</svg>
